<svg xmlns="http://www.w3.org/2000/svg" version="1.1" xmlns:xlink="http://www.w3.org/1999/xlink" xmlns:svgjs="http://svgjs.dev/svgjs" viewBox="0 0 800 800"><defs><linearGradient x1="50%" y1="0%" x2="50%" y2="100%" id="ccchaos-grad"><stop stop-color="hsl(206, 75%, 49%)" stop-opacity="1" offset="0%"></stop><stop stop-color="hsl(331, 90%, 56%)" stop-opacity="1" offset="100%"></stop></linearGradient></defs><g stroke-width="2" stroke="url(#ccchaos-grad)" fill="none" stroke-linecap="round"><path d="M119.06 105.21Q128.33 107.54 137.61 110.12 146.89 112.85 156.17 115.62 165.45 118.32 174.73 120.87 184.01 123.16 193.28 125.1 202.56 126.62 211.84 127.67 221.12 128.2 230.4 128.2 239.68 127.67 248.96 126.62 258.23 125.09 267.51 123.15 276.79 120.86 286.07 118.32 295.35 115.61 304.63 112.84 313.9 110.12 323.18 107.54 332.46 105.2 341.74 103.19 351.02 101.6 360.3 100.46 369.58 99.84 378.85 99.75 388.13 100.2 397.41 101.16 406.69 102.61 415.97 104.48 425.25 106.72 434.53 109.23 443.8 111.91 453.08 114.68 462.36 117.42 471.64 120.03 480.92 122.42 490.2 124.48 499.48 126.16 508.75 127.37 518.03 128.08 527.31 128.26 536.59 127.91 545.87 127.03 555.15 125.66 564.43 123.85 573.7 121.67 582.98 119.2 592.26 116.54 601.54 113.78 610.82 111.03 620.1 108.39 629.38 105.96 638.65 103.83 647.93 102.09 657.21 100.79 666.49 99.99 675.77 99.72 685.05 99.99 694.33 100.78 703.6 102.07 712.88 103.81 719.71 112.5 723.35 121.2 723.48 129.9 720.07 138.6 713.46 147.3 704.25 155.99 693.33 164.69 681.71 173.39 670.5 182.09 660.75 190.79 653.37 199.49 649.07 208.18 648.25 216.88 650.99 225.58 657.03 234.28 665.79 242.98 676.46 251.68 688.03 260.37 699.4 269.07 709.51 277.77 717.41 286.47 722.35 295.17 723.86 303.87 721.8 312.56 716.37 321.26 708.07 329.96 697.7 338.66 686.22 347.36 674.72 356.06 664.29 364.75 655.9 373.45 650.34 382.15 648.15 390.85 649.52 399.55 654.33 408.24 662.12 416.94 672.16 425.64 683.51 434.34 695.09 443.04 705.81 451.74 714.67 460.43 720.82 469.13 723.69 477.83 723.01 486.53 718.85 495.23 711.58 503.93 701.91 512.62 690.73 521.32 679.11 530.02 668.14 538.72 658.85 547.42 652.12 556.12 648.58 564.81 648.56 573.51 652.08 582.21 658.79 590.91 668.06 599.61 679.02 608.3 690.64 617 701.83 625.7 711.52 634.4 718.8 643.1 707.05 652.45 686.04 650.27 676.62 650.95 667.21 652.95 657.79 656.19 648.38 660.56 638.96 665.88 629.54 671.96 620.13 678.57 610.71 685.45 601.3 692.36 591.88 699.03 582.47 705.21 573.05 710.66 563.63 715.18 554.22 718.61 544.8 720.81 535.39 721.7 525.97 721.25 516.56 719.47 507.14 716.43 497.72 712.24 488.31 707.07 478.89 701.1 469.48 694.57 460.06 687.71 450.64 680.79 441.23 674.06 431.81 667.79 422.4 662.19 412.98 657.5 403.57 653.87 394.15 651.46 384.73 650.34 375.32 650.57 365.9 652.13 356.49 654.96 347.07 658.96 337.66 663.98 328.24 669.83 318.82 676.29 309.41 683.11 299.99 690.04 290.58 696.81 281.16 703.18 271.74 708.91 262.33 713.77 252.91 717.58 243.5 720.21 234.08 721.55 224.67 721.55 215.25 720.22 205.83 717.59 196.42 713.78 187 708.92 177.59 703.2 168.17 696.83 158.75 690.05 149.34 683.12 139.92 676.3 130.51 669.85 121.09 664 120.96 655.27 120.17 646.54 118.8 637.8 116.97 629.07 114.87 620.34 112.68 611.61 110.62 602.88 108.87 594.15 107.28 576.69 107.62 559.22 108.89 550.49 110.63 541.76 112.7 533.03 114.89 524.3 116.99 515.57 118.81 506.84 120.63 489.37 120.55 471.91 119.39 463.18 117.72 454.45 115.71 445.72 113.53 436.99 111.39 428.26 109.5 419.53 107.45 402.06 107.29 384.6 108.33 375.87 109.91 367.14 111.87 358.41 114.04 349.68 116.2 340.95 118.15 332.21 119.71 323.48 120.73 314.75 121.12 306.02 120.84 297.29 119.91 288.56 118.42 279.83 116.52 271.1 114.38 262.37 112.2 253.63 110.19 244.9 108.54 236.17 107.41 227.44 107.37 209.98 109.24 192.52 111.08 183.79 113.19 175.05 115.37 166.32 117.43 157.59 119.16 148.86 120.41 140.13 120.69 122.67 119.06 105.21" stroke-dasharray="6 3" transform="rotate(0, 400, 400)" opacity="0.05"></path><path d="M132.1 118.95Q150.14 124.25 168.17 129.66 186.21 134.42 204.25 137.88 222.29 139.56 240.32 139.24 258.36 136.94 276.4 133 294.44 127.96 312.47 122.5 330.51 117.39 348.55 113.33 366.59 110.88 384.63 110.37 402.66 111.89 420.7 115.21 438.74 119.88 456.78 125.26 474.81 130.6 492.85 135.17 510.89 138.33 528.93 139.66 546.96 138.96 565 136.33 583.04 132.14 601.08 126.96 619.12 121.51 637.15 116.55 655.19 112.74 673.23 110.63 691.27 110.5 709.3 112.37 711.6 129.01 701.41 145.64 682.21 162.27 660.55 178.91 643.82 195.54 637.72 212.17 644.33 228.81 661.41 245.44 683.12 262.08 702.06 278.71 711.76 295.34 708.93 311.98 694.52 328.61 673.45 345.24 652.91 361.88 639.9 378.51 638.86 395.14 650.15 411.78 669.91 428.41 691.41 445.04 707.31 461.68 712.18 478.31 704.38 494.95 686.55 511.58 664.78 528.21 646.49 544.85 637.93 561.48 642.01 578.11 657.34 594.75 678.69 611.38 695.74 634.08 674.61 640.46 656.54 645.54 638.47 654.68 620.39 666.62 602.32 679.72 584.24 692.17 566.17 702.25 548.1 708.56 530.02 710.25 511.95 707.07 493.88 699.46 475.8 688.48 457.73 675.64 439.65 662.7 421.58 651.47 403.51 643.48 385.43 639.84 367.36 641.05 349.29 646.95 331.21 656.71 313.14 669 295.06 682.12 276.99 694.25 258.92 703.72 240.84 709.24 222.77 710.02 204.7 705.98 186.62 697.66 168.55 686.21 150.47 673.21 132.4 660.46 129.92 643.54 125.76 626.62 121.34 609.69 118.17 592.77 117.32 575.85 119.09 558.93 122.88 542.01 127.39 525.08 131.08 508.16 132.69 491.24 131.68 474.32 128.39 457.39 123.94 440.47 119.85 423.55 117.51 406.63 117.73 389.71 120.42 372.78 124.68 355.86 129.04 338.94 132.02 322.02 132.61 305.09 130.6 288.17 126.68 271.25 122.18 254.33 118.65 237.41 117.28 220.48 118.54 203.56 122 186.64 126.49 169.72 130.46 152.79 132.57 135.87 132.1 118.95" stroke-dasharray="2 8" transform="rotate(4.04, 400, 400)" opacity="0.09"></path><path d="M144.3 133.22Q161.69 138.6 179.08 143.66 196.46 147.74 213.85 150.32 231.24 151.08 248.62 149.92 266.01 146.99 283.4 142.66 300.78 137.48 318.17 132.11 335.56 127.23 352.94 123.47 370.33 121.31 387.72 121.01 405.1 122.62 422.49 125.94 439.88 130.53 457.26 135.82 474.65 141.13 492.04 145.79 509.42 149.2 526.81 150.93 544.2 150.76 561.58 148.71 578.97 145.04 596.36 140.22 613.74 134.86 631.13 129.65 648.52 125.24 665.9 122.21 689.32 129.2 680.14 153.38 659.84 169.28 640.86 185.19 629.16 201.1 628.44 217.01 638.92 232.92 657.3 248.83 677.79 264.73 693.94 280.64 700.64 296.55 695.8 312.46 680.94 328.37 660.74 344.28 641.56 360.19 629.46 376.09 628.23 392 638.27 407.91 656.42 423.82 676.95 439.73 693.41 455.64 700.59 471.54 696.24 487.45 681.74 503.36 661.64 519.27 642.28 535.18 629.77 551.09 628.04 567 637.64 582.9 655.54 598.81 675.88 621.94 658.46 632.13 641.27 639.15 624.07 649.33 606.87 661.38 589.67 673.77 572.47 684.91 555.28 693.38 538.08 698.12 520.88 698.51 503.68 694.51 486.49 686.63 469.29 675.86 452.09 663.59 434.89 651.36 417.7 640.74 400.5 633.09 383.3 629.36 366.1 630.05 348.9 635.06 331.71 643.75 314.51 655.01 297.31 667.42 280.11 679.4 262.92 689.41 245.72 696.19 228.52 698.87 211.32 697.11 194.13 691.14 176.93 681.71 159.73 670.02 142.53 657.57 138.74 641.19 134.08 624.8 130.03 608.41 127.85 592.03 128.24 575.64 131.08 559.26 135.46 542.87 140.01 526.48 143.3 510.1 144.28 493.71 142.66 477.33 138.93 460.94 134.28 444.55 130.17 428.17 127.89 411.78 128.17 395.39 130.91 379.01 135.26 362.62 139.83 346.24 143.2 329.85 144.3 313.46 142.78 297.08 139.12 280.69 134.48 264.31 130.32 247.92 127.94 231.53 128.11 215.15 130.75 198.76 135.05 182.37 139.65 165.99 143.1 149.6 144.3 133.22" stroke-dasharray="3 10" transform="rotate(8.08, 400, 400)" opacity="0.13"></path><path d="M155.34 147.83Q171.95 153 188.55 157.47 205.16 160.71 221.77 162.35 238.38 162.19 254.99 160.25 271.6 156.76 288.21 152.13 304.82 146.9 321.43 141.68 338.03 137.08 354.64 133.64 371.25 131.76 387.86 131.67 404.47 133.37 421.08 136.66 437.69 141.16 454.3 146.35 470.91 151.61 487.52 156.33 504.12 159.96 520.73 162.07 537.34 162.42 553.95 160.96 570.56 157.87 587.17 153.51 603.78 148.38 620.39 143.09 637 138.26 653.61 134.45 672.8 139.42 657.45 161.95 638.22 177.17 623.28 192.39 616.96 207.61 621.09 222.83 634.47 238.05 653.22 253.27 671.91 268.49 685.11 283.71 689 298.94 682.45 314.16 667.35 329.38 648.09 344.6 630.26 359.82 619.01 375.04 617.62 390.26 626.49 405.48 643.05 420.7 662.49 435.92 679.18 451.14 688.27 466.36 687.13 481.58 676.1 496.8 658.36 512.02 639.07 527.24 623.81 542.46 617.02 557.68 620.67 572.9 633.68 588.13 652.3 603.35 671.12 618.57 654.88 619.9 638.64 625.11 622.4 633.58 606.17 644.32 589.93 656.08 573.69 667.47 557.45 677.17 541.21 684.05 524.97 687.29 508.73 686.52 492.49 681.82 476.25 673.75 460.01 663.26 443.77 651.56 427.53 640.03 411.29 630.02 395.05 622.7 378.81 618.92 362.58 619.13 346.34 623.3 330.1 630.94 313.86 641.17 297.62 652.78 281.38 664.42 265.14 674.71 248.9 682.47 232.66 686.78 216.42 687.14 200.18 683.5 183.94 676.29 167.7 666.36 151.46 654.86 146.82 639.01 142.23 623.17 139.02 607.32 138.13 591.48 139.8 575.64 143.56 559.79 148.32 543.95 152.69 528.1 155.41 512.26 155.69 496.41 153.45 480.57 149.34 464.72 144.54 448.88 140.46 433.03 138.27 417.19 138.62 401.35 141.39 385.5 145.79 369.66 150.54 353.81 154.26 337.97 155.87 322.12 154.91 306.28 151.66 290.43 147.05 274.59 142.43 258.74 139.13 242.9 138.11 227.06 139.67 211.21 143.35 195.37 148.09 179.52 152.52 163.68 155.34 147.83" stroke-dasharray="6 3" transform="rotate(12.12, 400, 400)" opacity="0.16"></path><path d="M165.03 162.6Q180.76 167.27 196.49 170.96 212.21 173.25 227.94 173.91 243.67 172.86 259.4 170.22 275.12 166.27 290.85 161.44 306.58 156.23 322.31 151.22 338.03 146.93 353.76 143.82 369.49 142.24 385.22 142.34 400.95 144.12 416.67 147.39 432.4 151.79 448.13 156.86 463.86 162.05 479.58 166.8 495.31 170.62 511.04 173.08 526.77 173.92 542.49 173.06 558.22 170.58 573.95 166.76 589.68 161.99 605.4 156.8 621.13 151.74 636.86 147.34 652.76 150.49 634.66 171.46 618.32 186.03 608.28 200.6 607.21 215.16 615.38 229.73 630.64 244.3 648.91 258.87 665.34 273.43 675.57 288 676.87 302.57 668.89 317.13 653.77 331.7 635.51 346.27 618.98 360.83 608.57 375.4 607.05 389.97 614.82 404.54 629.81 419.1 648.05 433.67 664.68 448.24 675.27 462.8 677.02 477.37 669.45 491.94 654.59 506.51 636.37 521.07 619.65 535.64 608.87 550.21 606.9 564.77 614.26 579.34 629 593.91 647.19 608.47 631.94 612.25 616.7 619.21 601.46 628.61 586.21 639.44 570.97 650.55 555.72 660.75 540.48 668.93 525.24 674.23 509.99 676.07 494.75 674.26 479.51 669 464.26 660.84 449.02 650.67 433.77 639.56 418.53 628.72 403.29 619.29 388.04 612.3 372.8 608.5 357.55 608.28 342.31 611.67 327.07 618.31 311.82 627.49 296.58 638.23 281.33 649.36 266.09 659.71 250.85 668.16 235.6 673.81 220.36 676.05 205.12 674.64 189.87 669.73 174.63 661.85 159.38 651.84 154.52 636.55 150.58 621.27 148.61 605.98 149.14 590.69 152.02 575.4 156.49 560.11 161.36 544.82 165.34 529.53 167.36 514.24 166.89 498.95 164.06 483.66 159.61 468.38 154.74 453.09 150.73 437.8 148.65 422.51 149.06 407.22 151.84 391.93 156.26 376.64 161.14 361.35 165.19 346.06 167.32 330.78 166.97 315.49 164.24 300.2 159.84 284.91 154.96 269.62 150.88 254.33 148.7 239.04 148.98 223.75 151.67 208.46 156.03 193.18 160.92 177.89 165.03 162.6" stroke-dasharray="2 8" transform="rotate(16.16, 400, 400)" opacity="0.20"></path><path d="M173.43 177.29Q188.21 181.23 202.99 183.97 217.77 185.26 232.55 184.95 247.33 183.08 262.11 179.84 276.88 175.54 291.66 170.6 306.44 165.5 321.22 160.75 336 156.79 350.78 154.04 365.56 152.74 380.34 153.03 395.12 154.88 409.9 158.11 424.67 162.4 439.45 167.34 454.23 172.44 469.01 177.2 483.79 181.16 498.57 183.93 513.35 185.25 528.13 184.97 542.91 183.13 557.68 179.92 572.46 175.63 587.24 170.7 602.02 165.6 616.8 160.83 630.55 162.44 613.04 181.96 600.92 195.91 596.1 209.85 599.75 223.79 610.99 237.73 627.08 251.68 644.13 265.62 657.98 279.56 665.29 293.51 664.26 307.45 655.17 321.39 640.2 335.34 623 349.28 607.74 363.22 598.13 377.17 596.49 391.11 603.23 405.05 616.72 418.99 633.66 432.94 649.97 446.88 661.66 460.82 665.91 474.77 661.69 488.71 650.01 502.65 633.72 516.6 616.76 530.54 603.26 544.48 596.5 558.43 598.11 572.37 607.7 586.31 622.95 600.26 608.69 605.99 594.43 614.17 580.17 624 565.91 634.5 551.66 644.67 537.4 653.5 523.14 660.13 508.88 663.91 494.62 664.48 480.36 661.78 466.1 656.07 451.84 647.91 437.59 638.09 423.33 627.59 409.07 617.41 394.81 608.57 380.55 601.91 366.29 598.1 352.03 597.5 337.78 600.17 323.52 605.86 309.26 614 295 623.8 280.74 634.3 266.48 644.48 252.22 653.35 237.96 660.03 223.71 663.87 209.45 664.5 195.19 661.86 180.93 656.2 166.67 648.08 162.27 633.37 159.5 618.66 159.03 603.94 160.99 589.23 164.88 574.52 169.78 559.81 174.49 545.09 177.86 530.38 179.08 515.67 177.85 500.96 174.47 486.24 169.77 471.53 164.87 456.82 160.98 442.11 159.03 427.4 159.5 412.68 162.28 397.97 166.69 383.26 171.65 368.55 175.98 353.83 178.6 339.12 178.9 324.41 176.79 309.7 172.79 294.99 167.87 280.27 163.22 265.56 159.97 250.85 158.92 236.14 160.31 221.42 163.81 206.71 168.57 192 173.43 177.29" stroke-dasharray="3 6" transform="rotate(20.200000000000003, 400, 400)" opacity="0.24"></path><path d="M180.81 191.67Q194.61 194.69 208.42 196.41 222.23 196.67 236.03 195.45 249.84 192.86 263.65 189.13 277.45 184.59 291.26 179.64 305.07 174.72 318.87 170.28 332.68 166.69 346.48 164.28 360.29 163.27 374.1 163.74 387.9 165.65 401.71 168.84 415.52 173.01 429.32 177.8 443.13 182.79 456.94 187.53 470.74 191.6 484.55 194.64 498.35 196.39 512.16 196.68 525.97 195.49 539.77 192.92 553.58 189.21 567.39 184.68 581.19 179.74 595 174.82 607.75 175.23 593.72 193.44 586.53 206.78 586.73 220.12 594.27 233.46 607.48 246.81 623.46 260.15 638.67 273.49 649.76 286.83 654.28 300.17 651.24 313.52 641.31 326.86 626.67 340.2 610.56 353.54 596.53 366.89 587.68 380.23 585.96 393.57 591.75 406.91 603.77 420.26 619.37 433.6 635.11 446.94 647.51 460.28 653.84 473.62 652.71 486.97 644.36 500.31 630.63 513.65 614.56 526.99 599.68 540.34 589.29 553.68 585.67 567.02 589.63 580.36 600.28 593.71 586.95 600.87 573.63 609.72 560.3 619.49 546.98 629.3 533.65 638.29 520.33 645.66 507 650.74 493.68 653.11 480.35 652.53 467.02 649.07 453.7 643.03 440.37 634.95 427.05 625.54 413.72 615.64 400.4 606.13 387.07 597.84 373.75 591.52 360.42 587.73 347.1 586.8 333.77 588.81 320.44 593.58 307.12 600.7 293.79 609.53 280.47 619.29 267.14 629.11 253.82 638.12 240.49 645.53 227.17 650.67 213.84 653.09 200.51 652.57 187.19 649.17 173.86 643.18 170.55 629.07 169.32 614.96 170.45 600.85 173.68 586.74 178.3 572.63 183.3 558.52 187.57 544.41 190.17 530.3 190.52 516.19 188.55 502.08 184.69 487.97 179.8 473.86 174.95 459.75 171.21 445.64 169.41 431.53 169.95 417.42 172.7 403.31 177.06 389.21 182.07 375.1 186.62 360.99 189.71 346.88 190.66 332.77 189.25 318.66 185.8 304.55 181.07 290.44 176.1 276.33 171.99 262.22 169.65 248.11 169.59 234 171.82 219.89 175.86 205.78 180.81 191.67" stroke-dasharray="1 4" transform="rotate(24.24, 400, 400)" opacity="0.28"></path><path d="M187.63 205.53Q200.49 207.51 213.34 208.16 226.19 207.43 239.05 205.39 251.9 202.2 264.75 198.11 277.6 193.44 290.46 188.59 303.31 183.92 316.16 179.83 329.02 176.62 341.87 174.57 354.72 173.83 367.57 174.47 380.43 176.43 393.28 179.56 406.13 183.6 418.99 188.24 431.84 193.1 444.69 197.78 457.55 201.93 470.4 205.2 483.25 207.33 496.1 208.15 508.96 207.6 521.81 205.72 534.66 202.66 547.52 198.66 560.37 194.05 573.22 189.2 586 188.77 577.51 205.81 575.38 218.57 579.96 231.33 590.33 244.09 604.42 256.84 619.43 269.6 632.35 282.36 640.62 295.12 642.58 307.87 637.84 320.63 627.34 333.39 613.19 346.14 598.2 358.9 585.36 371.66 577.24 384.42 575.45 397.17 580.36 409.93 590.97 422.69 605.19 435.45 620.16 448.2 632.9 460.96 640.88 473.72 642.49 486.47 637.43 499.23 626.69 511.99 612.42 524.75 597.47 537.5 584.82 550.26 576.99 563.02 575.54 575.78 580.77 588.53 568.3 596.55 555.82 605.56 543.35 614.85 530.87 623.66 518.4 631.31 505.92 637.16 493.45 640.76 480.97 641.82 468.5 640.25 456.02 636.17 443.55 629.92 431.07 621.99 418.6 613.02 406.12 603.72 393.65 594.86 381.17 587.12 368.7 581.13 356.22 577.38 343.75 576.16 331.27 577.57 318.79 581.49 306.32 587.62 293.84 595.46 281.37 604.39 268.89 613.68 256.42 622.6 243.94 630.43 231.47 636.54 218.99 640.45 206.52 641.83 194.04 640.59 181.57 636.81 179.82 623.34 180.3 609.86 182.92 596.38 187.15 582.9 192.14 569.43 196.9 555.95 200.49 542.47 202.18 528.99 201.64 515.52 198.98 502.04 194.72 488.56 189.72 475.08 184.98 461.61 181.43 448.13 179.79 434.65 180.39 421.17 183.1 407.7 187.39 394.22 192.39 380.74 197.12 367.26 200.63 353.79 202.21 340.31 201.56 326.83 198.8 313.35 194.48 299.88 189.47 286.4 184.76 272.92 181.3 259.44 179.77 245.97 180.48 232.49 183.29 219.01 187.63 205.53" stroke-dasharray="4 2" transform="rotate(28.28, 400, 400)" opacity="0.32"></path><path d="M194.52 218.67Q206.47 219.55 218.43 219.16 230.38 217.54 242.34 214.79 254.3 211.13 266.25 206.81 278.21 202.15 290.16 197.47 302.12 193.12 314.07 189.41 326.03 186.6 337.98 184.9 349.94 184.43 361.9 185.22 373.85 187.22 385.81 190.29 397.76 194.19 409.72 198.66 421.67 203.36 433.63 207.97 445.58 212.15 457.54 215.6 469.5 218.07 481.45 219.38 493.41 219.44 505.36 218.25 517.32 215.89 529.27 212.53 541.23 208.41 553.18 203.83 566.73 202.95 564.87 218.97 567.36 231.15 575.35 243.33 587.39 255.51 601.34 267.69 614.69 279.87 625.04 292.05 630.54 304.23 630.21 316.41 624.1 328.59 613.3 340.77 599.77 352.95 585.91 365.13 574.22 377.31 566.79 389.49 564.97 401.67 569.06 413.85 578.34 426.03 591.15 438.21 605.19 450.39 617.93 462.57 627.1 474.75 631.05 486.93 629.07 499.11 621.52 511.29 609.75 523.47 595.87 535.65 582.37 547.83 571.67 560.01 565.7 572.19 565.52 584.37 553.79 592.68 542.07 601.37 530.35 609.82 518.62 617.42 506.9 623.62 495.18 627.98 483.45 630.18 471.73 630.07 460.01 627.64 448.28 623.09 436.56 616.73 424.84 609.02 413.11 600.52 401.39 591.84 389.67 583.6 377.95 576.39 366.22 570.74 354.5 567.05 342.78 565.59 331.05 566.46 319.33 569.59 307.61 574.77 295.88 581.62 284.16 589.65 272.44 598.28 260.71 606.89 248.99 614.85 237.27 621.61 225.54 626.67 213.82 629.66 196.27 623.16 192.58 603.13 196.4 590.32 201.23 577.5 206.2 564.69 210.41 551.87 213.11 539.06 213.82 526.24 212.41 513.42 209.13 500.61 204.57 487.79 199.55 474.98 194.96 462.16 191.64 449.35 190.18 436.53 190.83 423.72 193.49 410.9 197.67 398.09 202.63 385.27 207.47 372.46 211.33 359.64 213.52 346.83 213.64 334.01 211.67 321.19 207.97 308.38 203.19 295.56 198.2 282.75 193.89 269.93 191.04 257.12 190.14 244.3 191.38 231.49 194.52 218.67" stroke-dasharray="6 11" transform="rotate(32.32, 400, 400)" opacity="0.35"></path><path d="M202.13 230.92Q213.26 230.72 224.4 229.37 235.54 226.98 246.68 223.69 257.82 219.71 268.96 215.3 280.1 210.74 291.24 206.33 302.38 202.34 313.52 199.04 324.65 196.64 335.79 195.28 346.93 195.06 358.07 196 369.21 198.02 380.35 201.01 391.49 204.77 402.63 209.05 413.77 213.59 424.9 218.09 436.04 222.26 447.18 225.84 458.32 228.59 469.46 230.34 480.6 230.98 491.74 230.46 502.88 228.82 514.02 226.17 525.16 222.67 536.29 218.54 551.03 217.59 555.87 232.72 562.1 244.33 572.31 255.93 584.89 267.53 597.79 279.14 608.97 290.74 616.63 302.34 619.54 313.94 617.23 325.55 610.08 337.15 599.23 348.75 586.42 360.35 573.7 371.96 563.11 383.56 556.35 395.16 554.5 406.77 557.86 418.37 565.88 429.97 577.29 441.57 590.25 453.18 602.69 464.78 612.62 476.38 618.44 487.99 619.22 499.59 614.84 511.19 605.99 522.79 594.11 534.4 581.08 546 569 557.6 559.8 569.2 554.96 580.81 543.89 588.9 532.83 596.87 521.76 604.21 510.69 610.44 499.62 615.17 488.55 618.08 477.48 619 466.41 617.87 455.34 614.75 444.27 609.85 433.2 603.49 422.13 596.06 411.06 588.05 399.99 579.98 388.92 572.35 377.85 565.67 366.79 560.35 355.72 556.75 344.65 555.08 333.58 555.47 322.51 557.88 311.44 562.16 300.37 568.03 289.3 575.13 278.23 582.98 267.16 591.09 256.09 598.94 245.02 606.02 233.95 611.88 222.88 616.14 207.21 612.66 206.11 594.65 210.73 582.53 215.71 570.4 220.26 558.28 223.64 546.15 225.32 534.03 225.02 521.91 222.79 509.78 219 497.66 214.24 485.53 209.28 473.41 204.92 461.28 201.85 449.16 200.57 437.04 201.28 424.91 203.86 412.79 207.91 400.66 212.77 388.54 217.67 376.41 221.82 364.29 224.56 352.17 225.44 340.04 224.33 327.92 221.4 315.79 217.12 303.67 212.19 291.54 207.38 279.42 203.47 267.3 201.09 255.17 200.62 243.05 202.13 230.92" stroke-dasharray="10 4" transform="rotate(36.36, 400, 400)" opacity="0.39"></path><path d="M211.06 242.17Q221.48 240.97 231.89 238.8 242.31 235.8 252.72 232.12 263.13 227.97 273.55 223.61 283.96 219.26 294.37 215.18 304.79 211.61 315.2 208.74 325.62 206.74 336.03 205.72 346.44 205.74 356.86 206.8 367.27 208.84 377.68 211.74 388.1 215.34 398.51 219.43 408.93 223.78 419.34 228.14 429.75 232.27 440.17 235.93 450.58 238.91 460.99 241.04 471.41 242.19 481.82 242.32 492.24 241.4 502.65 239.49 513.06 236.7 523.48 233.18 539.46 232.49 550.15 246.85 558.94 257.87 570.17 268.89 582.22 279.91 593.38 290.93 602.08 301.94 607.06 312.96 607.63 323.98 603.7 335 595.84 346.02 585.15 357.04 573.16 368.06 561.57 379.07 552.04 390.09 545.91 401.11 544.05 412.13 546.74 423.15 553.59 434.17 563.62 445.18 575.41 456.2 587.28 467.22 597.55 478.24 604.76 489.26 607.87 500.28 606.46 511.29 600.71 522.31 591.45 533.33 579.99 544.35 567.97 555.37 557.08 566.39 548.89 577.4 538.39 584.84 527.89 591.78 517.39 597.81 506.89 602.61 496.4 605.88 485.9 607.46 475.4 607.25 464.9 605.26 454.4 601.6 443.9 596.49 433.4 590.21 422.91 583.12 412.41 575.62 401.91 568.15 391.41 561.12 380.91 554.94 370.41 549.96 359.91 546.46 349.42 544.64 338.92 544.6 328.42 546.35 317.92 549.79 307.42 554.72 296.92 560.86 286.42 567.86 275.93 575.33 265.43 582.83 254.93 589.94 244.43 596.26 233.93 601.43 219.86 600.47 220.72 584.39 225.63 572.98 230.3 561.58 234.08 550.17 236.42 538.76 237 527.35 235.73 515.95 232.79 504.54 228.6 493.13 223.76 481.72 218.95 470.32 214.85 458.91 212.06 447.5 210.96 436.09 211.72 424.69 214.22 413.28 218.11 401.87 222.84 390.46 227.73 379.06 232.09 367.65 235.3 356.24 236.9 344.83 236.67 333.43 234.64 322.02 231.09 310.61 226.53 299.21 221.62 287.8 217.04 276.39 213.45 264.98 211.36 253.58 211.06 242.17" stroke-dasharray="1 10" transform="rotate(40.400000000000006, 400, 400)" opacity="0.43"></path><path d="M221.79 252.35Q231.56 250.3 241.34 247.49 251.11 244.05 260.89 240.15 270.66 236 280.44 231.8 290.21 227.76 299.99 224.08 309.76 220.95 319.54 218.52 329.31 216.91 339.09 216.21 348.87 216.45 358.64 217.62 368.42 219.66 378.19 222.46 387.97 225.89 397.74 229.78 407.52 233.93 417.29 238.13 427.07 242.18 436.84 245.86 446.62 249.01 456.39 251.45 466.17 253.06 475.95 253.78 485.72 253.55 495.5 252.39 505.27 250.37 515.05 247.57 532.01 247.41 547.02 261.1 557.1 271.52 568.16 281.94 578.83 292.37 587.76 302.79 593.85 313.21 596.33 323.63 594.88 334.05 589.7 344.47 581.43 354.89 571.09 365.31 560 375.73 549.53 386.15 541 396.57 535.46 406.99 533.63 417.41 535.72 427.84 541.47 438.26 550.16 448.68 560.72 459.1 571.8 469.52 582.04 479.94 590.14 490.36 595.1 500.78 596.29 511.2 593.56 521.62 587.26 532.04 578.17 542.46 567.44 552.88 556.4 563.31 546.43 573.73 536.45 580.16 526.46 585.84 516.48 590.48 506.5 593.84 496.51 595.75 486.53 596.13 476.54 594.95 466.56 592.27 456.57 588.22 446.59 583.01 436.6 576.9 426.62 570.2 416.63 563.23 406.65 556.35 396.67 549.91 386.68 544.22 376.7 539.57 366.71 536.19 356.73 534.25 346.74 533.85 336.76 535.02 326.77 537.68 316.79 541.71 306.81 546.9 296.82 553 286.84 559.7 276.85 566.66 266.87 573.55 256.88 580 246.9 585.7 237.4 574.24 244.67 551.09 247.41 540.42 248.59 529.75 248.08 519.08 245.92 508.41 242.4 497.74 237.95 487.07 233.14 476.4 228.55 465.73 224.77 455.07 222.27 444.4 221.36 433.73 222.16 423.06 224.57 412.39 228.27 401.72 232.82 391.05 237.65 380.38 242.13 369.71 245.73 359.04 247.98 348.37 248.61 337.7 247.53 327.03 244.89 316.36 241.01 305.7 236.37 295.03 231.56 284.36 227.18 273.69 223.78 263.02 221.79 252.35" stroke-dasharray="1 3" transform="rotate(44.44, 400, 400)" opacity="0.47"></path><path d="M234.49 261.47Q243.7 258.76 252.91 255.5 262.11 251.82 271.32 247.88 280.53 243.87 289.73 239.95 298.94 236.29 308.15 233.05 317.35 230.38 326.56 228.39 335.77 227.17 344.97 226.77 354.18 227.21 363.38 228.47 372.59 230.49 381.8 233.19 391 236.44 400.21 240.12 409.42 244.05 418.62 248.06 427.83 251.99 437.04 255.65 446.24 258.89 455.45 261.57 464.66 263.57 473.86 264.81 483.07 265.22 492.28 264.79 501.48 263.55 510.69 261.54 519.9 258.85 529.1 255.6 536.36 265.4 545.54 275.21 555.65 285.01 565.57 294.82 574.23 304.62 580.68 314.43 584.22 324.23 584.46 334.04 581.38 343.84 575.3 353.65 566.9 363.45 557.09 373.26 546.95 383.06 537.57 392.87 529.99 402.67 525.02 412.48 523.22 422.28 524.78 432.09 529.52 441.9 536.94 451.7 546.22 461.51 556.35 471.31 566.22 481.12 574.75 490.92 581.03 500.73 584.35 510.53 584.35 520.34 581.05 530.14 574.79 539.95 566.26 549.75 556.39 559.56 546.26 569.36 536.77 574.57 527.27 578.87 517.78 582.09 508.28 584.09 498.79 584.77 489.29 584.11 479.8 582.14 470.3 578.93 460.81 574.64 451.31 569.45 441.82 563.59 432.32 557.31 422.83 550.88 413.33 544.59 403.84 538.71 394.34 533.49 384.85 529.17 375.35 525.93 365.86 523.92 356.36 523.22 346.87 523.86 337.37 525.82 327.88 529 318.38 533.28 308.89 538.46 299.39 544.31 289.9 550.59 280.4 557.02 270.91 563.31 261.41 569.2 252.56 560.33 258.5 539.1 260.02 529.19 260.02 519.27 258.49 509.35 255.59 499.44 251.64 489.52 247.08 479.61 242.4 469.69 238.11 459.78 234.69 449.86 232.49 439.95 231.77 430.03 232.61 420.12 234.9 410.2 238.4 400.28 242.74 390.37 247.43 380.45 251.96 370.54 255.84 360.62 258.65 350.71 260.07 340.79 259.96 330.88 258.33 320.96 255.35 311.04 251.34 301.13 246.76 291.21 242.09 281.3 237.85 271.38 234.49 261.47" stroke-dasharray="9 5" transform="rotate(48.48, 400, 400)" opacity="0.51"></path><path d="M249.09 269.59Q257.77 266.44 266.45 262.94 275.14 259.22 283.82 255.41 292.5 251.66 301.18 248.11 309.86 244.9 318.54 242.14 327.22 239.94 335.9 238.38 353.27 237.77 370.63 239.34 379.31 241.33 387.99 243.91 396.67 246.99 405.35 250.44 414.04 254.13 422.72 257.94 431.4 261.71 440.08 265.3 448.76 268.58 457.44 271.42 466.12 273.72 474.8 275.39 492.17 276.25 509.53 274.92 518.21 273.04 526.89 270.55 535.39 279.72 544.61 288.89 553.68 298.06 561.74 307.23 568.03 316.4 571.97 325.57 573.17 334.73 571.53 343.9 567.2 353.07 560.59 362.24 552.32 371.41 543.18 380.58 534.01 389.75 525.69 398.92 519.01 408.09 514.58 417.25 512.83 426.42 513.92 435.59 517.75 444.76 523.96 453.93 531.97 463.1 541.01 472.27 550.24 481.44 558.79 490.61 565.85 499.77 570.75 508.94 573.04 518.11 572.5 527.28 569.18 536.45 563.39 545.62 555.68 554.79 546.77 563.96 537.77 567.8 528.78 570.72 519.78 572.59 510.78 573.34 501.78 572.96 492.79 571.44 483.79 568.86 474.79 565.3 465.79 560.91 456.8 555.84 447.8 550.28 438.8 544.45 429.8 538.57 420.8 532.85 411.81 527.52 402.81 522.77 393.81 518.78 384.81 515.7 375.82 513.64 366.82 512.7 357.82 512.89 348.82 514.21 339.83 516.62 330.83 520.02 321.83 524.29 312.83 529.26 303.84 534.74 294.84 540.54 285.84 546.43 276.84 552.19 267.69 545.23 271.48 525.86 271.74 516.71 270.62 507.55 268.21 498.4 264.75 489.25 260.55 480.1 256.02 470.94 251.58 461.79 247.66 452.64 244.61 443.49 242.73 434.33 242.19 425.18 243.05 416.03 245.22 406.88 248.5 397.72 252.59 388.57 257.08 379.42 261.57 370.27 265.63 361.11 268.88 351.96 271 342.81 271.8 333.66 271.21 324.5 269.28 315.35 266.19 306.2 262.24 297.05 257.79 287.89 253.27 278.74 249.09 269.59" stroke-dasharray="6 10" transform="rotate(52.52, 400, 400)" opacity="0.54"></path><path d="M265.19 276.84Q281.52 269.96 297.86 262.83 314.2 256.36 330.54 251.37 346.88 248.49 363.22 248.1 379.55 250.24 395.89 254.64 412.23 260.74 428.57 267.76 444.91 274.81 461.24 281 477.58 285.53 493.92 287.83 510.26 287.6 526.6 284.88 543.13 301.9 556.15 318.92 561.56 335.94 557.65 352.96 545.67 369.98 529.37 387.01 513.9 404.03 504.13 421.05 503.15 438.07 511.25 455.09 525.88 472.11 542.45 489.13 555.72 506.15 561.51 523.17 558.01 540.19 546.31 557.22 529.38 561.28 512.45 561.62 495.52 558.19 478.59 551.42 461.66 542.18 444.73 531.64 427.8 521.15 410.88 512.04 393.95 505.47 377.02 502.28 360.09 502.86 343.16 507.16 326.23 514.62 309.3 524.29 286.95 531.69 283.36 511.67 280.34 494.89 273.44 478.12 264.81 461.35 257.19 444.57 252.98 427.8 253.49 411.03 258.58 394.26 266.63 377.48 275.11 360.71 281.35 343.94 283.38 327.16 280.57 310.39 273.79 293.62 265.19 276.84" stroke-dasharray="7 3" transform="rotate(56.56, 400, 400)" opacity="0.58"></path><path d="M282.11 283.42Q297.39 276.73 312.68 270.29 327.96 264.77 343.24 260.78 358.53 258.75 373.81 258.88 389.09 261.17 404.37 265.36 419.66 271.02 434.94 277.53 450.22 284.2 465.51 290.31 480.79 295.21 496.07 298.37 511.36 299.46 526.64 298.35 540.06 314.01 548.42 329.67 549.48 345.33 542.97 361 530.61 376.66 515.7 392.32 502.2 407.98 493.69 423.64 492.45 439.3 498.79 454.96 511.04 470.63 525.94 486.29 539.52 501.95 548.18 517.61 549.6 533.27 543.42 548.93 527.67 550.53 511.92 548.97 496.16 544.4 480.41 537.33 464.66 528.51 448.9 518.88 433.15 509.48 417.39 501.32 401.64 495.26 385.89 491.96 370.13 491.77 354.38 494.71 338.63 500.47 322.87 508.42 300.95 514.93 293.99 496.89 289.21 481.64 281.72 466.39 273.51 451.14 266.75 435.9 263.25 420.65 263.94 405.4 268.63 390.15 276.07 374.91 284.3 359.66 291.11 344.41 294.7 329.16 294.12 313.92 289.51 298.67 282.11 283.42" stroke-dasharray="4 5" transform="rotate(60.599999999999994, 400, 400)" opacity="0.62"></path><path d="M299.02 289.55Q313.17 283.43 327.32 277.88 341.48 273.41 355.63 270.41 369.78 269.15 383.93 269.74 398.08 272.12 412.24 276.09 426.39 281.29 440.54 287.26 454.69 293.48 468.84 299.38 483 304.46 497.15 308.25 511.3 310.42 525.45 310.78 534.63 325.05 538.38 339.31 535.86 353.57 527.63 367.84 515.52 382.1 502.19 396.36 490.57 410.63 483.25 424.89 481.82 439.15 486.61 453.42 496.56 467.68 509.47 481.94 522.5 496.21 532.77 510.47 538.01 524.74 537.08 539 522.62 538.5 508.17 535.46 493.71 530.17 479.26 523.1 464.8 514.85 450.35 506.18 435.89 497.85 421.44 490.59 406.99 485.06 392.53 481.73 378.08 480.91 363.62 482.68 349.17 486.86 334.71 493.1 313.31 498.24 303.29 481.9 297.3 468.16 289.69 454.42 282.15 440.68 276.34 426.94 273.55 413.21 274.38 399.47 278.66 385.73 285.44 371.99 293.22 358.25 300.29 344.51 305.09 330.77 306.56 317.03 304.38 303.29 299.02 289.55" stroke-dasharray="11 7" transform="rotate(64.64, 400, 400)" opacity="0.66"></path><path d="M315.01 295.52Q327.93 290.25 340.85 285.75 353.77 282.35 366.68 280.29 379.6 279.72 392.52 280.68 405.44 283.1 418.36 286.81 431.27 291.54 444.19 296.95 457.11 302.65 470.03 308.23 482.94 313.29 495.86 317.47 508.78 320.46 521.7 322.05 526.32 334.88 526.04 347.72 520.91 360.55 511.85 373.39 500.48 386.22 488.85 399.05 479.04 411.89 472.8 424.72 471.27 437.56 474.71 450.39 482.5 463.22 493.25 476.06 505.03 488.89 515.73 501.73 518.57 519.91 500.67 521.22 487.63 515.58 474.59 508.76 461.55 501.23 448.51 493.54 435.48 486.25 422.44 479.87 409.4 474.86 396.36 471.6 383.32 470.3 370.28 471.07 357.24 473.84 344.21 478.43 323.63 481.92 311.33 467.09 304.72 454.84 297.45 442.58 290.81 430.33 286 418.07 283.87 405.82 284.82 393.56 288.67 381.31 294.73 369.05 301.91 356.79 308.93 344.54 314.52 332.28 317.69 320.03 317.87 307.77 315.01 295.52" stroke-dasharray="5 8" transform="rotate(68.68, 400, 400)" opacity="0.70"></path><path d="M329.27 301.6Q340.84 297.39 352.42 294 363.99 291.64 375.57 290.44 387.14 290.46 398.72 291.71 410.29 294.12 421.87 297.54 433.44 301.78 445.02 306.61 456.59 311.74 468.17 316.89 479.74 321.76 491.31 326.07 502.89 329.58 514.46 332.09 514.95 343.47 511.6 354.86 504.9 366.24 495.79 377.62 485.58 389 475.71 400.38 467.58 411.77 462.36 423.15 460.78 434.53 463.07 445.91 468.9 457.29 477.45 468.68 487.5 480.06 497.61 491.44 490.78 503.8 466.37 494.37 454.84 487.66 443.31 480.97 431.78 474.68 420.24 469.14 408.71 464.68 397.18 461.54 385.65 459.91 374.12 459.88 362.58 461.45 351.05 464.53 331.75 466.29 318.27 452.84 311.67 442.03 305.11 431.23 299.54 420.43 295.73 409.63 294.24 398.82 295.27 388.02 298.68 377.22 303.98 366.42 310.42 355.61 317.09 344.81 323.03 334.01 327.4 323.21 329.59 312.4 329.27 301.6" stroke-dasharray="8 2" transform="rotate(72.72, 400, 400)" opacity="0.73"></path><path d="M341.17 308.11Q351.31 305.04 361.44 302.75 371.58 301.34 381.72 300.88 391.86 301.39 401.99 302.83 412.13 305.16 422.27 308.26 432.4 312.01 442.54 316.24 452.68 320.76 462.82 325.37 472.95 329.89 483.09 334.1 496.96 344.33 495.44 360.75 488.17 370.67 479.68 380.58 470.89 390.5 462.78 400.42 456.21 410.34 451.92 420.25 450.36 430.17 451.71 440.09 455.81 450.01 462.23 459.92 470.27 469.84 479.03 479.76 475.66 489.19 455.07 480 445.09 474.17 435.12 468.47 425.15 463.14 415.17 458.42 405.2 454.5 395.22 451.57 385.25 449.74 375.28 449.11 365.3 449.69 355.33 451.46 337.82 451.59 324.4 439.46 318.36 430.07 312.82 420.69 308.4 411.31 305.56 401.93 304.64 392.55 305.71 383.16 308.67 373.78 313.2 364.4 318.79 355.02 324.84 345.64 330.7 336.25 335.71 326.87 339.33 317.49 341.17 308.11" stroke-dasharray="10 6" transform="rotate(76.76, 400, 400)" opacity="0.77"></path><path d="M350.43 315.32Q367.7 312.09 384.96 311.64 402.23 314.05 419.5 318.99 436.77 325.84 454.04 333.73 471.31 341.65 488.58 348.6 478.03 365.5 463.68 382.41 450.07 399.31 441.47 416.21 440.6 433.11 447.73 450.01 459.5 471.12 441.57 465.67 424.76 456.05 407.94 447.69 391.13 441.66 374.32 438.73 357.5 439.27 340.69 443.21 330.08 427.23 320.71 411.24 315.52 395.25 316.15 379.26 322.41 363.28 332.31 347.29 342.75 331.3 350.43 315.32" stroke-dasharray="7 0" transform="rotate(80.80000000000001, 400, 400)" opacity="0.81"></path><path d="M357.13 323.48Q371.34 322.09 385.55 322.74 399.76 325.35 413.96 329.71 428.17 335.43 442.38 341.99 456.59 348.82 470.8 355.31 459.94 369.29 448 383.28 437.59 397.26 431.03 411.24 429.75 425.22 434.05 439.2 427.6 450.03 399.58 436.97 385.85 431.82 372.11 428.73 358.37 427.97 344.64 429.61 335.76 416.34 328.91 403.08 325.62 389.81 326.6 376.55 331.64 363.28 339.62 350.01 348.79 336.75 357.13 323.48" stroke-dasharray="8 7" transform="rotate(84.84, 400, 400)" opacity="0.85"></path><path d="M361.76 332.8Q372.93 332.83 384.1 334.17 395.27 336.76 406.44 340.44 417.61 345.01 428.78 350.2 440.87 364.04 432.78 383.45 425.36 394.54 420.59 405.63 419.15 416.72 421.24 427.82 413.57 436.37 391.28 426.24 380.51 422.04 369.74 419.09 358.97 417.55 348.2 417.52 341.88 406.93 337.57 396.34 335.87 385.75 337.04 375.16 340.9 364.57 346.91 353.98 354.21 343.39 361.76 332.8" stroke-dasharray="3 3" transform="rotate(88.88, 400, 400)" opacity="0.89"></path><path d="M365.16 343.42Q381.58 345.95 398 351.16 414.42 358.39 430.84 366.72 418.16 383.21 410.14 399.7 404.72 419.85 384.22 415.52 368.34 409.76 352.46 406.96 346.79 391.07 347.48 375.19 354.32 359.3 365.16 343.42" stroke-dasharray="7 10" transform="rotate(92.92, 400, 400)" opacity="0.92"></path><path d="M368.38 355.4Q379.11 358.08 389.84 361.89 402.41 374.75 399.7 393.79 394.09 407.26 379.4 404.79 368.94 400.72 358.48 397.86 356.69 387.24 357.93 376.63 362.02 366.01 368.38 355.4" stroke-dasharray="8 2" transform="rotate(96.96, 400, 400)" opacity="0.96"></path></g></svg>